nColumns=19
nRows=63
DataType=double
version=3
OpenSimVersion=4.1
endheader
time	ground_force_calcn_r_vx	ground_force_calcn_r_vy	ground_force_calcn_r_vz	ground_force_calcn_r_px	ground_force_calcn_r_py	ground_force_calcn_r_pz	ground_force_calcn_r_mx	ground_force_calcn_r_my	ground_force_calcn_r_mz	ground_force_calcn_l_vx	ground_force_calcn_l_vy	ground_force_calcn_l_vz	ground_force_calcn_l_px	ground_force_calcn_l_py	ground_force_calcn_l_pz	ground_force_calcn_l_mx	ground_force_calcn_l_my	ground_force_calcn_l_mz
3.3	8.18685	404.949	-14.6277	-0.254781	0	-0.458786	-0.00336847	-0.166615	0.00601855	-7.36007	104.26	18.1	-0.204849	0	-0.777543	-0.110524	1.56564	0.271803
3.31	9.21303	409.101	-14.0606	-0.255752	0	-0.459121	-0.00167726	-0.0744782	0.00255977	-6.28522	106.566	18.477	-0.207621	0	-0.777028	-0.0933869	1.58338	0.274535
3.32	10.2643	413.312	-13.4927	-0.256601	0	-0.459438	0.000544025	0.0219061	-0.000715133	-5.33365	108.672	18.7652	-0.210103	0	-0.776484	-0.0785657	1.60076	0.276414
3.33	11.294	417.5	-12.9576	-0.25732	0	-0.459727	0.00322886	0.11936	-0.00370448	-4.51757	110.543	18.9515	-0.212304	0	-0.775907	-0.06613	1.61818	0.27742
3.34	12.2544	421.583	-12.4897	-0.257906	0	-0.459982	0.00625395	0.215152	-0.00637404	-3.83615	112.178	19.0293	-0.214255	0	-0.775289	-0.055955	1.63625	0.277566
3.35	13.1103	425.499	-12.1186	-0.258357	0	-0.460196	0.00946575	0.307213	-0.00874974	-3.27931	113.601	18.9985	-0.215999	0	-0.774624	-0.0477957	1.65573	0.276902
3.36	13.8461	429.234	-11.8627	-0.258681	0	-0.460368	0.0127111	0.394048	-0.0108903	-2.8325	114.85	18.8639	-0.217578	0	-0.77391	-0.041369	1.6774	0.27551
3.37	14.4663	432.822	-11.7238	-0.258886	0	-0.460496	0.0158633	0.474622	-0.012856	-2.4808	115.963	18.6324	-0.219031	0	-0.773144	-0.0364144	1.70216	0.273496
3.38	14.9936	436.331	-11.6894	-0.258988	0	-0.460586	0.0188425	0.548337	-0.0146901	-2.21172	116.968	18.3112	-0.220394	0	-0.772331	-0.0327284	1.73086	0.270965
3.39	15.4657	439.843	-11.7406	-0.259001	0	-0.460644	0.0216239	0.614982	-0.0164155	-2.01641	117.885	17.9073	-0.221692	0	-0.771475	-0.0301774	1.76425	0.267998
3.4	15.9264	443.442	-11.857	-0.258941	0	-0.460674	0.0242274	0.674571	-0.0180371	-1.88897	118.724	17.4275	-0.222949	0	-0.770585	-0.0286845	1.80285	0.264643
3.41	16.4145	447.194	-12.0206	-0.258821	0	-0.460683	0.026692	0.727191	-0.0195469	-1.82428	119.489	16.8793	-0.224181	0	-0.769671	-0.0281948	1.84673	0.260874
3.42	16.9539	451.132	-12.2187	-0.258648	0	-0.460673	0.0290449	0.772865	-0.0209327	-1.81545	120.18	16.2702	-0.225401	0	-0.768743	-0.0286331	1.89547	0.256612
3.43	17.5468	455.264	-12.4455	-0.258427	0	-0.460649	0.0312791	0.811558	-0.0221855	-1.8524	120.793	15.6085	-0.226614	0	-0.767811	-0.0298779	1.94829	0.251753
3.44	18.1762	459.586	-12.6986	-0.258155	0	-0.460613	0.0333458	0.84315	-0.0232966	-1.92368	121.321	14.9035	-0.227823	0	-0.766884	-0.0317798	2.00425	0.24621
3.45	18.8146	464.103	-12.9757	-0.257829	0	-0.460563	0.035161	0.867323	-0.0242492	-2.02044	121.763	14.1668	-0.229017	0	-0.765973	-0.0342198	2.06228	0.239939
3.46	19.4313	468.834	-13.2734	-0.257447	0	-0.460502	0.0366196	0.883549	-0.0250147	-2.13985	122.124	13.4121	-0.230175	0	-0.765092	-0.0371685	2.12126	0.232965
3.47	19.9982	473.811	-13.5861	-0.25701	0	-0.460432	0.037614	0.891177	-0.0255538	-2.28665	122.407	12.6545	-0.231264	0	-0.764257	-0.0407284	2.18023	0.225394
3.48	20.4913	479.066	-13.9066	-0.256518	0	-0.460353	0.0380444	0.889441	-0.0258193	-2.47265	122.613	11.9083	-0.23224	0	-0.763488	-0.0451396	2.23836	0.217392
3.49	20.8901	484.617	-14.2273	-0.255972	0	-0.460272	0.037824	0.877458	-0.0257602	-2.71477	122.745	11.1859	-0.233056	0	-0.762804	-0.0507627	2.29517	0.209162
3.5	21.1749	490.454	-14.5411	-0.25538	0	-0.460187	0.0368842	0.854313	-0.0253289	-3.03083	122.813	10.4981	-0.233671	0	-0.762224	-0.058008	2.35056	0.200926
3.51	21.3231	496.525	-14.8434	-0.254741	0	-0.460102	0.0351733	0.819037	-0.0244848	-3.43499	122.842	9.85442	-0.234049	0	-0.761762	-0.0672467	2.40487	0.192919
3.52	21.3078	502.753	-15.1312	-0.25406	0	-0.460016	0.0326619	0.77065	-0.0231941	-3.93485	122.873	9.26327	-0.234174	0	-0.761429	-0.0787438	2.45892	0.185376
3.53	21.0975	509.034	-15.4027	-0.253337	0	-0.459933	0.029355	0.708268	-0.0214312	-4.52987	122.959	8.73153	-0.234043	0	-0.761235	-0.092611	2.51383	0.178512
3.54	20.6602	515.252	-15.6558	-0.252572	0	-0.45985	0.0253112	0.631245	-0.0191802	-5.2111	123.159	8.26415	-0.233673	0	-0.761184	-0.108787	2.57105	0.172522
3.55	19.9721	521.291	-15.886	-0.25177	0	-0.459771	0.0206624	0.53931	-0.0164351	-5.96243	123.524	7.86356	-0.233094	0	-0.761268	-0.12705	2.63211	0.16756
3.56	19.025	527.042	-16.0846	-0.250936	0	-0.459696	0.0156202	0.432721	-0.013206	-6.76203	124.095	7.52908	-0.232344	0	-0.761482	-0.14704	2.69844	0.163719
3.57	17.8287	532.411	-16.2376	-0.250078	0	-0.459629	0.0104649	0.312509	-0.00953094	-7.58332	124.892	7.25648	-0.231474	0	-0.761808	-0.168261	2.77114	0.161009
3.58	16.4096	537.317	-16.3278	-0.249209	0	-0.459574	0.00551335	0.18053	-0.00548588	-8.39559	125.919	7.03785	-0.230534	0	-0.762225	-0.19008	2.85087	0.15934
3.59	14.8069	541.694	-16.338	-0.248342	0	-0.459533	0.00107828	0.0394476	-0.00118978	-9.16571	127.171	6.86187	-0.229582	0	-0.762705	-0.21175	2.93795	0.158526
3.6	13.07	545.495	-16.2531	-0.247491	0	-0.459512	-0.00257057	-0.107286	0.00319661	-9.86147	128.633	6.71541	-0.228669	0	-0.763216	-0.232484	3.03253	0.158316
3.61	11.2558	548.692	-16.0613	-0.246672	0	-0.459514	-0.0052398	-0.255428	0.00747687	-10.455	130.291	6.58584	-0.227844	0	-0.763724	-0.251523	3.13449	0.15844
3.62	9.42522	551.278	-15.7539	-0.245902	0	-0.459543	-0.00684205	-0.400189	0.0114363	-10.9255	132.123	6.46181	-0.227146	0	-0.764202	-0.268196	3.24331	0.158622
3.63	7.64047	553.276	-15.324	-0.245197	0	-0.459604	-0.00741036	-0.536613	0.0148625	-11.2609	134.106	6.33266	-0.226609	0	-0.764628	-0.281981	3.35811	0.158575
3.64	5.96016	554.729	-14.7648	-0.244572	0	-0.459702	-0.00709164	-0.660039	0.0175677	-11.4574	136.208	6.18754	-0.226251	0	-0.764981	-0.29254	3.4778	0.157986
3.65	4.43634	555.696	-14.0696	-0.244041	0	-0.459838	-0.00611997	-0.766588	0.0194091	-11.5179	138.392	6.0143	-0.226084	0	-0.765249	-0.299696	3.60095	0.156492
3.66	3.11266	556.231	-13.2336	-0.243614	0	-0.460017	-0.00477551	-0.853382	0.0203033	-11.4487	140.61	5.79948	-0.22611	0	-0.76542	-0.303358	3.72576	0.15367
3.67	2.02376	556.384	-12.2558	-0.243299	0	-0.460238	-0.00334214	-0.918839	0.0202399	-11.2556	142.81	5.52936	-0.226324	0	-0.765486	-0.303431	3.84991	0.149062
3.68	1.19683	556.197	-11.1398	-0.2431	0	-0.460504	-0.0020715	-0.962677	0.019281	-10.9419	144.945	5.19227	-0.226714	0	-0.765441	-0.299751	3.97075	0.142241
3.69	0.652952	555.716	-9.89394	-0.243015	0	-0.460809	-0.00115829	-0.985797	0.0175511	-10.507	146.976	4.78046	-0.227269	0	-0.765284	-0.292062	4.0855	0.132882
3.7	0.406401	554.989	-8.53154	-0.243043	0	-0.461152	-0.000725145	-0.990272	0.0152229	-9.94855	148.879	4.29256	-0.227968	0	-0.765017	-0.280089	4.19151	0.120852
3.71	0.462988	554.065	-7.06994	-0.243177	0	-0.461528	-0.000818211	-0.979166	0.0124943	-9.26822	150.644	3.73483	-0.228785	0	-0.76465	-0.263718	4.28644	0.106271
3.72	0.816728	552.987	-5.53065	-0.243406	0	-0.461927	-0.00141264	-0.956463	0.00956597	-8.4762	152.275	3.12114	-0.22969	0	-0.764201	-0.243176	4.36866	0.0895435
3.73	1.44626	551.79	-3.93879	-0.243719	0	-0.462342	-0.00242958	-0.926952	0.00661678	-7.59424	153.78	2.47136	-0.230645	0	-0.763696	-0.219138	4.43746	0.0713132
3.74	2.31448	550.489	-2.32154	-0.244095	0	-0.462763	-0.0037666	-0.895868	0.00377808	-6.65459	155.177	1.80885	-0.231613	0	-0.763168	-0.19268	4.49305	0.0523742
3.75	3.3709	549.083	-0.707666	-0.244515	0	-0.46318	-0.00533159	-0.868458	0.00111928	-5.69559	156.484	1.15882	-0.232553	0	-0.76265	-0.165117	4.53651	0.0335944
3.76	4.55549	547.556	0.872763	-0.244955	0	-0.463582	-0.00706906	-0.849678	-0.00135432	-4.75711	157.731	0.54693	-0.233429	0	-0.762176	-0.137816	4.56956	0.0158449
3.77	5.80151	545.878	2.38896	-0.24539	0	-0.463962	-0.00896869	-0.843886	-0.00369315	-3.87693	158.948	-0.00235257	-0.23421	0	-0.761775	-0.112064	4.59445	-6.8002e-05
3.78	7.03928	544.02	3.81061	-0.245797	0	-0.464307	-0.0110572	-0.854539	-0.00598566	-3.08878	160.165	-0.467314	-0.234868	0	-0.761475	-0.0889759	4.61375	-0.0134615
3.79	8.20128	541.954	5.11015	-0.24615	0	-0.464612	-0.0133784	-0.884068	-0.00833598	-2.42186	161.4	-0.831189	-0.235385	0	-0.761292	-0.0694737	4.62993	-0.0238435
3.8	9.22731	539.658	6.2652	-0.246436	0	-0.46487	-0.0159662	-0.933778	-0.0108408	-1.89972	162.657	-1.08544	-0.235749	0	-0.76123	-0.0542522	4.64517	-0.030998
3.81	10.0695	537.12	7.26073	-0.246638	0	-0.465076	-0.0188186	-1.00381	-0.0135694	-1.5381	163.926	-1.23178	-0.235956	0	-0.761287	-0.0437354	4.66117	-0.0350253
3.82	10.6956	534.341	8.09121	-0.24675	0	-0.465231	-0.0218833	-1.09326	-0.0165546	-1.34339	165.183	-1.28175	-0.236005	0	-0.761446	-0.0380533	4.67903	-0.0363074
3.83	11.0907	531.344	8.76178	-0.246771	0	-0.465333	-0.0250529	-1.20025	-0.019792	-1.31143	166.399	-1.25427	-0.235906	0	-0.761687	-0.0370349	4.69912	-0.0354205
3.84	11.2561	528.171	9.28703	-0.246704	0	-0.465389	-0.0281765	-1.32213	-0.0232475	-1.42694	167.547	-1.17202	-0.235671	0	-0.761988	-0.0402092	4.72126	-0.033026
3.85	11.207	524.882	9.68842	-0.246561	0	-0.465403	-0.0310848	-1.45587	-0.0268729	-1.66487	168.605	-1.0575	-0.235321	0	-0.762322	-0.0468512	4.74471	-0.0297591
3.86	10.9702	521.547	9.99087	-0.246351	0	-0.465382	-0.0336207	-1.5984	-0.0306192	-1.99395	169.559	-0.929909	-0.234876	0	-0.76267	-0.0560755	4.76848	-0.0261517
3.87	10.5801	518.238	10.2192	-0.246092	0	-0.465334	-0.0356594	-1.74668	-0.0344431	-2.38124	170.404	-0.804946	-0.234357	0	-0.763011	-0.0669573	4.79153	-0.022634
3.88	10.0726	515.024	10.3959	-0.245798	0	-0.465266	-0.0371132	-1.89765	-0.0383047	-2.79662	171.135	-0.695341	-0.233784	0	-0.763331	-0.0786453	4.8126	-0.0195541
3.89	9.47944	511.954	10.5386	-0.245482	0	-0.465186	-0.0379278	-2.04836	-0.0421654	-3.21532	171.751	-0.610818	-0.233171	0	-0.763625	-0.0904276	4.83031	-0.0171786
3.9	8.82524	509.061	10.658	-0.245157	0	-0.465098	-0.038073	-2.19614	-0.0459798	-3.6185	172.246	-0.557307	-0.232533	0	-0.763887	-0.101747	4.84332	-0.0156707
3.91	8.12793	506.359	10.7589	-0.244832	0	-0.465008	-0.0375414	-2.33878	-0.0496933	-3.99265	172.618	-0.536457	-0.231878	0	-0.764115	-0.11219	4.85041	-0.015074
3.92	7.4019	503.854	10.8409	-0.244514	0	-0.464917	-0.0363524	-2.47454	-0.0532422	-4.33016	172.859	-0.546278	-0.231214	0	-0.76431	-0.121505	4.85044	-0.0153286
